<svg width="512" height="512" viewBox="0 0 512 512" fill="none" xmlns="http://www.w3.org/2000/svg"><rect width="512" height="512" rx="116" fill="#050816"/><circle cx="120" cy="110" r="130" fill="#22D3EE" fill-opacity="0.45"/><circle cx="390" cy="130" r="150" fill="#8B5CF6" fill-opacity="0.38"/><rect x="92" y="92" width="328" height="328" rx="86" fill="url(#g)"/><path d="M156 190V324H240V292H196V190H156Z" fill="white"/><path d="M272 190C236 190 214 216 214 257C214 298 236 324 272 324C309 324 332 298 332 257C332 216 309 190 272 190ZM272 224C286 224 292 237 292 257C292 277 286 290 272 290C259 290 253 277 253 257C253 237 259 224 272 224Z" fill="white"/><defs><linearGradient id="g" x1="92" y1="92" x2="420" y2="420" gradientUnits="userSpaceOnUse"><stop stop-color="#22D3EE"/><stop offset="0.5" stop-color="#3B82F6"/><stop offset="1" stop-color="#A855F7"/></linearGradient></defs></svg>